<?xml version="1.0" encoding="UTF-8"?>
<svg xmlns="http://www.w3.org/2000/svg" viewBox="0 0 64 64" width="64" height="64" role="img" aria-hidden="true">
  <title>Luminiță</title>
  <circle cx="30" cy="30" r="16" fill="#E8D48A" stroke="#C4A15E" stroke-width="1.5"/>
  <path d="M42 22 C50 28 50 40 42 46 C46 38 46 30 42 22 Z" fill="#6B5A3A" stroke="#4A3C28" stroke-width="1.2"/>
  <path d="M30 10 L30 4 M18 18 L13 13 M42 18 L47 13 M14 30 L8 30 M46 30 L58 30 M18 42 L13 47 M42 42 L47 47 M30 46 L30 56" fill="none" stroke="#E8D48A" stroke-width="1.8" stroke-linecap="round"/>
  <circle cx="24" cy="28" r="1.9" fill="#3D2E1A"/>
  <circle cx="34" cy="28" r="1.9" fill="#3D2E1A"/>
  <circle cx="24.5" cy="27.5" r="0.55" fill="#FFF8EC"/>
  <circle cx="34.5" cy="27.5" r="0.55" fill="#FFF8EC"/>
  <path d="M25 36 Q30 40 35 36" fill="none" stroke="#6B4E2E" stroke-width="1.4" stroke-linecap="round"/>
</svg>
