<svg xmlns="http://www.w3.org/2000/svg" viewBox="0 0 64 64" width="64" height="64" role="img" aria-hidden="true">
  <title>Preule</title>
  <rect x="8" y="22" width="48" height="24" rx="6" fill="#D9B56F" stroke="#C4A15E" stroke-width="1.5"/>
  <path d="M12 22 L12 18 M18 22 L18 17 M24 22 L24 18 M30 22 L30 17 M34 22 L34 18 M40 22 L40 17 M46 22 L46 18 M52 22 L52 18" stroke="#C4A15E" stroke-width="2" stroke-linecap="round"/>
  <path d="M12 46 L12 50 M18 46 L18 51 M24 46 L24 50 M30 46 L30 51 M34 46 L34 50 M40 46 L40 51 M46 46 L46 50 M52 46 L52 50" stroke="#C4A15E" stroke-width="2" stroke-linecap="round"/>
  <circle cx="26" cy="33" r="2" fill="#3D2E1A"/>
  <circle cx="38" cy="33" r="2" fill="#3D2E1A"/>
  <circle cx="26.6" cy="32.4" r="0.65" fill="#FFF8EC"/>
  <circle cx="38.6" cy="32.4" r="0.65" fill="#FFF8EC"/>
  <path d="M27 40 Q32 44 37 40" fill="none" stroke="#6B4E2E" stroke-width="1.5" stroke-linecap="round"/>
</svg>
